<svg width="196pt" height="144pt" xmlns="http://www.w3.org/2000/svg" xmlns:xlink="http://www.w3.org/1999/xlink" xmlns:ev="http://www.w3.org/2001/xml-events" style="overflow: hidden; "><g id="viewport-20230830120234100" class="svg-pan-zoom_viewport" transform="matrix(1.3333333730697632,0,0,1.3333333730697632,0.14666278660297394,-0.00000286102294921875)">
<g id="graph0" class="graph" transform="scale(1 1) rotate(0) translate(4 140)">
<title>n0</title>
<polygon fill="white" stroke="none" points="-4,4 -4,-140 191.533,-140 191.533,4 -4,4"></polygon>
<polygon fill="#ffffff" stroke="none" points="0,-0 0,-127 196,-127 196,-0 0,-0"></polygon>
<!-- n1 -->
<g id="node1" class="node"><title>n1</title>
<g id="a_node1"><a xlink:href="https://gazelle.dicom.org.tw/gazelle/actor.seam?keyword=EMS_CONSUMER" xlink:title="EMS Consumer">
<polygon fill="#9fbdeb" stroke="black" points="90,-135.802 0,-135.802 0,-94.5981 90,-94.5981 90,-135.802"></polygon>
<text text-anchor="middle" x="45" y="-119.4" font-family="Times,serif" font-size="14.00">EMS</text>
<text text-anchor="middle" x="45" y="-102.6" font-family="Times,serif" font-size="14.00">Consumer</text>
</a>
</g>
</g>
<!-- n2 -->
<g id="node2" class="node"><title>n2</title>
<g id="a_node2"><a xlink:href="https://gazelle.dicom.org.tw/gazelle/actor.seam?keyword=EMS_REPOSITORY" xlink:title="EMS Repository">
<polygon fill="#9fbdeb" stroke="black" points="141,-41.4019 47,-41.4019 47,-0.198095 141,-0.198095 141,-41.4019"></polygon>
<text text-anchor="middle" x="94" y="-25" font-family="Times,serif" font-size="14.00">EMS</text>
<text text-anchor="middle" x="94" y="-8.2" font-family="Times,serif" font-size="14.00">Repository</text>
</a>
</g>
</g>
<!-- n1&#45;&gt;n2 -->
<g id="edge1" class="edge"><title>n1-&gt;n2</title>
<path fill="none" stroke="black" d="M50.3928,-94.3419C53.6977,-83.686 58.453,-70.5341 64.467,-59.6 66.258,-56.3437 68.3221,-53.074 70.5095,-49.8947"></path>
<polygon fill="black" stroke="black" points="73.3852,-51.8918 76.4851,-41.7606 67.7439,-47.7474 73.3852,-51.8918"></polygon>
<text text-anchor="middle" x="93.7665" y="-63.8" font-family="Times,serif" font-size="14.00">MITW-34</text>
</g>
<!-- n3 -->
<g id="node3" class="node"><title>n3</title>
<g id="a_node3"><a xlink:href="https://gazelle.dicom.org.tw/gazelle/actor.seam?keyword=EMS_CREATOR" xlink:title="EMS Creator ">
<polygon fill="#9fbdeb" stroke="black" points="180,-135.802 108,-135.802 108,-94.5981 180,-94.5981 180,-135.802"></polygon>
<text text-anchor="middle" x="144" y="-119.4" font-family="Times,serif" font-size="14.00">EMS</text>
<text text-anchor="middle" x="144" y="-102.6" font-family="Times,serif" font-size="14.00">Creator</text>
</a>
</g>
</g>
<!-- n3&#45;&gt;n2 -->
<g id="edge2" class="edge"><title>n3-&gt;n2</title>
<path fill="none" stroke="black" d="M137.421,-94.4407C133.545,-83.8138 128.19,-70.658 122,-59.6 120.178,-56.3441 118.114,-53.0464 115.953,-49.8256"></path>
<polygon fill="black" stroke="black" points="118.738,-47.7023 110.105,-41.5606 113.024,-51.7455 118.738,-47.7023"></polygon>
<text text-anchor="middle" x="158.767" y="-63.8" font-family="Times,serif" font-size="14.00">MITW-33</text>
</g>
</g>
</g></svg>