<svg width="973pt" height="260pt" xmlns="http://www.w3.org/2000/svg" xmlns:xlink="http://www.w3.org/1999/xlink" xmlns:ev="http://www.w3.org/2001/xml-events" style="overflow: hidden; "><g id="viewport-20230830120333979" class="svg-pan-zoom_viewport" transform="matrix(0.6713823676109314,0,0,0.6713823676109314,2.678621292114258,63.90034484863281)">
<g id="graph0" class="graph" transform="scale(1 1) rotate(0) translate(4 256)">
<title>n0</title>
<polygon fill="white" stroke="none" points="-4,4 -4,-256 969,-256 969,4 -4,4"></polygon>
<polygon fill="#ffffff" stroke="none" points="0,-0 0,-234 985,-234 985,-0 0,-0"></polygon>
<!-- n1 -->
<g id="node1" class="node"><title>n1</title>
<g id="a_node1"><a xlink:href="https://gazelle.dicom.org.tw/gazelle/actor.seam?keyword= IMG_DOC_CONSUMER" xlink:title=" Imaging Document Consumer">
<polygon fill="#9fbdeb" stroke="black" points="90,-252.201 0,-252.201 0,-177.399 90,-177.399 90,-252.201"></polygon>
<text text-anchor="middle" x="45" y="-219.4" font-family="Times,serif" font-size="14.00">Imaging</text>
<text text-anchor="middle" x="45" y="-202.6" font-family="Times,serif" font-size="14.00">Document</text>
<text text-anchor="middle" x="45" y="-185.8" font-family="Times,serif" font-size="14.00">Consumer</text>
</a>
</g>
</g>
<!-- n2 -->
<g id="node2" class="node"><title>n2</title>
<g id="a_node2"><a xlink:href="https://gazelle.dicom.org.tw/gazelle/actor.seam?keyword=IM" xlink:title=" Image Manager / Image Archive ">
<polygon fill="#9fbdeb" stroke="black" points="85.5,-108 4.5,-108 4.5,-1.42109e-14 85.5,-1.42109e-14 85.5,-108"></polygon>
<text text-anchor="middle" x="45" y="-75.4" font-family="Times,serif" font-size="14.00">Image</text>
<text text-anchor="middle" x="45" y="-58.6" font-family="Times,serif" font-size="14.00">Manager</text>
<text text-anchor="middle" x="45" y="-41.8" font-family="Times,serif" font-size="14.00">/</text>
<text text-anchor="middle" x="45" y="-25" font-family="Times,serif" font-size="14.00">Image</text>
<text text-anchor="middle" x="45" y="-8.2" font-family="Times,serif" font-size="14.00">Archive</text>
</a>
</g>
</g>
<!-- n1&#45;&gt;n2 -->
<g id="edge1" class="edge"><title>n1-&gt;n2</title>
<path fill="none" stroke="black" d="M45,-177.368C45,-159.821 45,-138.268 45,-118.165"></path>
<polygon fill="black" stroke="black" points="48.5001,-118.126 45,-108.126 41.5001,-118.127 48.5001,-118.126"></polygon>
<text text-anchor="middle" x="72.6052" y="-147" font-family="Times,serif" font-size="14.00">RAD-107</text>
<text text-anchor="middle" x="72.6052" y="-130.2" font-family="Times,serif" font-size="14.00">RAD-16</text>
</g>
<!-- n3 -->
<g id="node3" class="node"><title>n3</title>
<g id="a_node3"><a xlink:href="https://gazelle.dicom.org.tw/gazelle/actor.seam?keyword=IMG_REPORT_CONSUMER" xlink:title="Imaging Report Consumer">
<polygon fill="#9fbdeb" stroke="black" points="198,-244.201 108,-244.201 108,-185.399 198,-185.399 198,-244.201"></polygon>
<text text-anchor="middle" x="153" y="-227.4" font-family="Times,serif" font-size="14.00">Imaging</text>
<text text-anchor="middle" x="153" y="-210.6" font-family="Times,serif" font-size="14.00">Report</text>
<text text-anchor="middle" x="153" y="-193.8" font-family="Times,serif" font-size="14.00">Consumer</text>
</a>
</g>
</g>
<!-- n4 -->
<g id="node4" class="node"><title>n4</title>
<g id="a_node4"><a xlink:href="https://gazelle.dicom.org.tw/gazelle/actor.seam?keyword=IMG_REPORT_Repository" xlink:title="Report Repository">
<polygon fill="#9fbdeb" stroke="black" points="301,-74.6019 207,-74.6019 207,-33.3981 301,-33.3981 301,-74.6019"></polygon>
<text text-anchor="middle" x="254" y="-58.2" font-family="Times,serif" font-size="14.00">Report</text>
<text text-anchor="middle" x="254" y="-41.4" font-family="Times,serif" font-size="14.00">Repository</text>
</a>
</g>
</g>
<!-- n3&#45;&gt;n4 -->
<g id="edge2" class="edge"><title>n3-&gt;n4</title>
<path fill="none" stroke="black" d="M163.293,-185.445C170.32,-167.7 180.505,-144.734 192.467,-126 202.354,-110.517 215.451,-94.9147 227.02,-82.2956"></path>
<polygon fill="black" stroke="black" points="229.708,-84.5453 233.984,-74.8515 224.596,-79.7632 229.708,-84.5453"></polygon>
<text text-anchor="middle" x="221.766" y="-147" font-family="Times,serif" font-size="14.00">MITW-30</text>
<text text-anchor="middle" x="221.766" y="-130.2" font-family="Times,serif" font-size="14.00">MITW-32</text>
</g>
<!-- n5 -->
<g id="node5" class="node"><title>n5</title>
<g id="a_node5"><a xlink:href="https://gazelle.dicom.org.tw/gazelle/actor.seam?keyword=IMG_REPORT_CREATOR" xlink:title="Imaging Report Creator">
<polygon fill="#9fbdeb" stroke="black" points="292,-244.201 216,-244.201 216,-185.399 292,-185.399 292,-244.201"></polygon>
<text text-anchor="middle" x="254" y="-227.4" font-family="Times,serif" font-size="14.00">Imaging</text>
<text text-anchor="middle" x="254" y="-210.6" font-family="Times,serif" font-size="14.00">Report</text>
<text text-anchor="middle" x="254" y="-193.8" font-family="Times,serif" font-size="14.00">Creator</text>
</a>
</g>
</g>
<!-- n5&#45;&gt;n4 -->
<g id="edge3" class="edge"><title>n5-&gt;n4</title>
<path fill="none" stroke="black" d="M254,-185.41C254,-157.09 254,-113.756 254,-84.9124"></path>
<polygon fill="black" stroke="black" points="257.5,-84.6287 254,-74.6288 250.5,-84.6288 257.5,-84.6287"></polygon>
<text text-anchor="middle" x="282.766" y="-147" font-family="Times,serif" font-size="14.00">MITW-31</text>
<text text-anchor="middle" x="282.766" y="-130.2" font-family="Times,serif" font-size="14.00">MITW-61</text>
</g>
<!-- n6 -->
<g id="node6" class="node"><title>n6</title>
<g id="a_node6"><a xlink:href="https://gazelle.dicom.org.tw/gazelle/actor.seam?keyword=IMG_STUDY_CONSUMER" xlink:title="Imaging Consumer">
<polygon fill="#9fbdeb" stroke="black" points="537,-235.402 447,-235.402 447,-194.198 537,-194.198 537,-235.402"></polygon>
<text text-anchor="middle" x="492" y="-219" font-family="Times,serif" font-size="14.00">Imaging</text>
<text text-anchor="middle" x="492" y="-202.2" font-family="Times,serif" font-size="14.00">Consumer</text>
</a>
</g>
</g>
<!-- n7 -->
<g id="node7" class="node"><title>n7</title>
<g id="a_node7"><a xlink:href="https://gazelle.dicom.org.tw/gazelle/actor.seam?keyword=OBS_ANN_REPOSITORY" xlink:title="Observeration-Annoation Repository">
<polygon fill="#9fbdeb" stroke="black" points="673,-74.6019 477,-74.6019 477,-33.3981 673,-33.3981 673,-74.6019"></polygon>
<text text-anchor="middle" x="575" y="-58.2" font-family="Times,serif" font-size="14.00">Observeration-Annoation</text>
<text text-anchor="middle" x="575" y="-41.4" font-family="Times,serif" font-size="14.00">Repository</text>
</a>
</g>
</g>
<!-- n6&#45;&gt;n7 -->
<g id="edge4" class="edge"><title>n6-&gt;n7</title>
<path fill="none" stroke="black" d="M502.344,-194.009C516.797,-166.356 543.132,-115.971 559.813,-84.0564"></path>
<polygon fill="black" stroke="black" points="563.126,-85.2742 564.656,-74.7904 556.922,-82.0316 563.126,-85.2742"></polygon>
<text text-anchor="middle" x="564.766" y="-138.6" font-family="Times,serif" font-size="14.00">MITW-30</text>
</g>
<!-- n8 -->
<g id="node8" class="node"><title>n8</title>
<g id="a_node8"><a xlink:href="https://gazelle.dicom.org.tw/gazelle/actor.seam?keyword=IMG_STUDY_CREATOR" xlink:title="ImageStudy Creator">
<polygon fill="#9fbdeb" stroke="black" points="423.5,-235.402 320.5,-235.402 320.5,-194.198 423.5,-194.198 423.5,-235.402"></polygon>
<text text-anchor="middle" x="372" y="-219" font-family="Times,serif" font-size="14.00">ImageStudy</text>
<text text-anchor="middle" x="372" y="-202.2" font-family="Times,serif" font-size="14.00">Creator</text>
</a>
</g>
</g>
<!-- n8&#45;&gt;n4 -->
<g id="edge5" class="edge"><title>n8-&gt;n4</title>
<path fill="none" stroke="black" d="M359.155,-194.186C344.764,-172.303 322.244,-138.35 313,-126 301.946,-111.23 288.904,-95.388 277.896,-82.4238"></path>
<polygon fill="black" stroke="black" points="280.501,-80.0844 271.342,-74.7591 275.181,-84.6338 280.501,-80.0844"></polygon>
<text text-anchor="middle" x="364.767" y="-138.6" font-family="Times,serif" font-size="14.00">MITW-29</text>
</g>
<!-- n8&#45;&gt;n7 -->
<g id="edge6" class="edge"><title>n8-&gt;n7</title>
<path fill="none" stroke="black" d="M389.495,-194.008C406.569,-175.304 433.802,-147.051 460.467,-126 482.174,-108.864 508.256,-92.414 530.043,-79.6708"></path>
<polygon fill="black" stroke="black" points="531.873,-82.6556 538.782,-74.6226 528.372,-76.5944 531.873,-82.6556"></polygon>
<text text-anchor="middle" x="489.767" y="-138.6" font-family="Times,serif" font-size="14.00">MITW-29</text>
</g>
<!-- n9 -->
<g id="node9" class="node"><title>n9</title>
<g id="a_node9"><a xlink:href="https://gazelle.dicom.org.tw/gazelle/actor.seam?keyword=OBS_ANN_CONSUMER" xlink:title="Observeration-Annoation Consumer">
<polygon fill="#9fbdeb" stroke="black" points="751,-235.402 555,-235.402 555,-194.198 751,-194.198 751,-235.402"></polygon>
<text text-anchor="middle" x="653" y="-219" font-family="Times,serif" font-size="14.00">Observeration-Annoation</text>
<text text-anchor="middle" x="653" y="-202.2" font-family="Times,serif" font-size="14.00">Consumer</text>
</a>
</g>
</g>
<!-- n9&#45;&gt;n7 -->
<g id="edge7" class="edge"><title>n9-&gt;n7</title>
<path fill="none" stroke="black" d="M643.279,-194.009C629.696,-166.356 604.948,-115.971 589.272,-84.0564"></path>
<polygon fill="black" stroke="black" points="592.271,-82.2231 584.721,-74.7904 585.988,-85.3092 592.271,-82.2231"></polygon>
<text text-anchor="middle" x="654.766" y="-138.6" font-family="Times,serif" font-size="14.00">MITW-36</text>
</g>
<!-- n10 -->
<g id="node10" class="node"><title>n10</title>
<g id="a_node10"><a xlink:href="https://gazelle.dicom.org.tw/gazelle/actor.seam?keyword=OBS_ANN_CREATOR" xlink:title="Observeration-Annoation Creator">
<polygon fill="#9fbdeb" stroke="black" points="965,-235.402 769,-235.402 769,-194.198 965,-194.198 965,-235.402"></polygon>
<text text-anchor="middle" x="867" y="-219" font-family="Times,serif" font-size="14.00">Observeration-Annoation</text>
<text text-anchor="middle" x="867" y="-202.2" font-family="Times,serif" font-size="14.00">Creator</text>
</a>
</g>
</g>
<!-- n10&#45;&gt;n7 -->
<g id="edge8" class="edge"><title>n10-&gt;n7</title>
<path fill="none" stroke="black" d="M830.902,-194.169C777.746,-165.261 678.457,-111.264 620.421,-79.7014"></path>
<polygon fill="black" stroke="black" points="621.931,-76.5386 611.474,-74.8358 618.587,-82.6881 621.931,-76.5386"></polygon>
<text text-anchor="middle" x="793.766" y="-138.6" font-family="Times,serif" font-size="14.00">MITW-35</text>
</g>
</g>
</g></svg>