<svg width="204pt" height="178pt" xmlns="http://www.w3.org/2000/svg" xmlns:xlink="http://www.w3.org/1999/xlink" xmlns:ev="http://www.w3.org/2001/xml-events" style="overflow: hidden; "><g id="viewport-20230830120135447" class="svg-pan-zoom_viewport" transform="matrix(1.1455219984054565,0,0,1.1455219984054565,34.041954040527344,4.8289690017700195)">
<g id="graph0" class="graph" transform="scale(1 1) rotate(0) translate(4 173.6)">
<title>n0</title>
<polygon fill="white" stroke="none" points="-4,4 -4,-173.6 199.533,-173.6 199.533,4 -4,4"></polygon>
<polygon fill="#ffffff" stroke="none" points="0,-0 0,-157 203,-157 203,-0 0,-0"></polygon>
<!-- n1 -->
<g id="node1" class="node"><title>n1</title>
<g id="a_node1"><a xlink:href="https://gazelle.dicom.org.tw/gazelle/actor.seam?keyword=CLAIM_CONSUMER" xlink:title="Claim Consumer">
<polygon fill="#9fbdeb" stroke="black" points="90,-169.402 0,-169.402 0,-128.198 90,-128.198 90,-169.402"></polygon>
<text text-anchor="middle" x="45" y="-153" font-family="Times,serif" font-size="14.00">Claim</text>
<text text-anchor="middle" x="45" y="-136.2" font-family="Times,serif" font-size="14.00">Consumer</text>
</a>
</g>
</g>
<!-- n2 -->
<g id="node2" class="node"><title>n2</title>
<g id="a_node2"><a xlink:href="https://gazelle.dicom.org.tw/gazelle/actor.seam?keyword=CLAIM_REPOSITORY" xlink:title="Claim Repository">
<polygon fill="#9fbdeb" stroke="black" points="141,-41.4019 47,-41.4019 47,-0.198095 141,-0.198095 141,-41.4019"></polygon>
<text text-anchor="middle" x="94" y="-25" font-family="Times,serif" font-size="14.00">Claim</text>
<text text-anchor="middle" x="94" y="-8.2" font-family="Times,serif" font-size="14.00">Repository</text>
</a>
</g>
</g>
<!-- n1&#45;&gt;n2 -->
<g id="edge1" class="edge"><title>n1-&gt;n2</title>
<path fill="none" stroke="black" d="M46.8186,-128.07C49.0939,-109.641 54.0424,-81.73 64.467,-59.6 66.0507,-56.238 67.9797,-52.8995 70.0855,-49.6784"></path>
<polygon fill="black" stroke="black" points="72.9733,-51.6573 75.9566,-41.4911 67.2848,-47.578 72.9733,-51.6573"></polygon>
<text text-anchor="middle" x="93.7665" y="-89" font-family="Times,serif" font-size="14.00">MITW-42</text>
<text text-anchor="middle" x="93.7665" y="-72.2" font-family="Times,serif" font-size="14.00">MITW-40</text>
</g>
<!-- n3 -->
<g id="node3" class="node"><title>n3</title>
<g id="a_node3"><a xlink:href="https://gazelle.dicom.org.tw/gazelle/actor.seam?keyword=CLAIM_CREATOR" xlink:title="Claim Creator">
<polygon fill="#9fbdeb" stroke="black" points="180,-169.402 108,-169.402 108,-128.198 180,-128.198 180,-169.402"></polygon>
<text text-anchor="middle" x="144" y="-153" font-family="Times,serif" font-size="14.00">Claim</text>
<text text-anchor="middle" x="144" y="-136.2" font-family="Times,serif" font-size="14.00">Creator</text>
</a>
</g>
</g>
<!-- n3&#45;&gt;n2 -->
<g id="edge2" class="edge"><title>n3-&gt;n2</title>
<path fill="none" stroke="black" d="M141.362,-128.131C138.379,-109.746 132.509,-81.864 122,-59.6 120.49,-56.4012 118.69,-53.2027 116.74,-50.0961"></path>
<polygon fill="black" stroke="black" points="119.504,-47.9372 110.969,-41.66 113.727,-51.8897 119.504,-47.9372"></polygon>
<text text-anchor="middle" x="166.767" y="-97.4" font-family="Times,serif" font-size="14.00">MITW-39</text>
<text text-anchor="middle" x="166.767" y="-80.6" font-family="Times,serif" font-size="14.00">MITW-41</text>
<text text-anchor="middle" x="166.767" y="-63.8" font-family="Times,serif" font-size="14.00">MITW-42</text>
</g>
</g>
</g></svg>