<svg width="1531pt" height="245pt" xmlns="http://www.w3.org/2000/svg" xmlns:xlink="http://www.w3.org/1999/xlink" xmlns:ev="http://www.w3.org/2001/xml-events" style="overflow: hidden; "><g id="viewport-20230830120421483" class="svg-pan-zoom_viewport" transform="matrix(0.46068108081817627,0,0,0.46068108081817627,3.8509910106658936,98.15270233154297)">
<g id="graph0" class="graph" transform="scale(1 1) rotate(0) translate(4 240.8)">
<title>n0</title>
<polygon fill="white" stroke="none" points="-4,4 -4,-240.8 1526.5,-240.8 1526.5,4 -4,4"></polygon>
<polygon fill="#ffffff" stroke="none" points="0,-0 0,-217 1537,-217 1537,-0 0,-0"></polygon>
<!-- n1 -->
<g id="node1" class="node"><title>n1</title>
<g id="a_node1"><a xlink:href="https://gazelle.dicom.org.tw/gazelle/actor.seam?keyword=DOCLAB_CONSUMER" xlink:title="Laboratory Report Document Bundle Consumer">
<polygon fill="#9fbdeb" stroke="black" points="96,-236.8 0,-236.8 0,-144.8 96,-144.8 96,-236.8"></polygon>
<text text-anchor="middle" x="48" y="-220.2" font-family="Times,serif" font-size="14.00">Laboratory</text>
<text text-anchor="middle" x="48" y="-203.4" font-family="Times,serif" font-size="14.00">Report</text>
<text text-anchor="middle" x="48" y="-186.6" font-family="Times,serif" font-size="14.00">Document</text>
<text text-anchor="middle" x="48" y="-169.8" font-family="Times,serif" font-size="14.00">Bundle</text>
<text text-anchor="middle" x="48" y="-153" font-family="Times,serif" font-size="14.00">Consumer</text>
</a>
</g>
</g>
<!-- n2 -->
<g id="node2" class="node"><title>n2</title>
<g id="a_node2"><a xlink:href="https://gazelle.dicom.org.tw/gazelle/actor.seam?keyword=DOCLAB_REPOSITORY" xlink:title="Test Result Document Bundle Repository">
<polygon fill="#9fbdeb" stroke="black" points="152,-92 58,-92 58,-0 152,-0 152,-92"></polygon>
<text text-anchor="middle" x="105" y="-75.4" font-family="Times,serif" font-size="14.00">Test</text>
<text text-anchor="middle" x="105" y="-58.6" font-family="Times,serif" font-size="14.00">Result</text>
<text text-anchor="middle" x="105" y="-41.8" font-family="Times,serif" font-size="14.00">Document</text>
<text text-anchor="middle" x="105" y="-25" font-family="Times,serif" font-size="14.00">Bundle</text>
<text text-anchor="middle" x="105" y="-8.2" font-family="Times,serif" font-size="14.00">Repository</text>
</a>
</g>
</g>
<!-- n1&#45;&gt;n2 -->
<g id="edge1" class="edge"><title>n1-&gt;n2</title>
<path fill="none" stroke="black" d="M66.0352,-144.617C71.4412,-131.074 77.4306,-116.069 83.0591,-101.968"></path>
<polygon fill="black" stroke="black" points="86.4299,-102.964 86.8865,-92.379 79.9287,-100.369 86.4299,-102.964"></polygon>
<text text-anchor="middle" x="107.766" y="-114.2" font-family="Times,serif" font-size="14.00">MITW-26</text>
</g>
<!-- n3 -->
<g id="node3" class="node"><title>n3</title>
<g id="a_node3"><a xlink:href="https://gazelle.dicom.org.tw/gazelle/actor.seam?keyword=DOCLAB_CREATOR" xlink:title="Laboratory Report Document Bundle Creator">
<polygon fill="#9fbdeb" stroke="black" points="210,-236.8 114,-236.8 114,-144.8 210,-144.8 210,-236.8"></polygon>
<text text-anchor="middle" x="162" y="-220.2" font-family="Times,serif" font-size="14.00">Laboratory</text>
<text text-anchor="middle" x="162" y="-203.4" font-family="Times,serif" font-size="14.00">Report</text>
<text text-anchor="middle" x="162" y="-186.6" font-family="Times,serif" font-size="14.00">Document</text>
<text text-anchor="middle" x="162" y="-169.8" font-family="Times,serif" font-size="14.00">Bundle</text>
<text text-anchor="middle" x="162" y="-153" font-family="Times,serif" font-size="14.00">Creator</text>
</a>
</g>
</g>
<!-- n3&#45;&gt;n2 -->
<g id="edge2" class="edge"><title>n3-&gt;n2</title>
<path fill="none" stroke="black" d="M151.505,-144.435C148.319,-133.016 144.459,-120.908 140,-110 138.83,-107.139 137.561,-104.243 136.221,-101.347"></path>
<polygon fill="black" stroke="black" points="139.261,-99.5953 131.741,-92.1322 132.966,-102.656 139.261,-99.5953"></polygon>
<text text-anchor="middle" x="174.766" y="-114.2" font-family="Times,serif" font-size="14.00">MITW-25</text>
</g>
<!-- n4 -->
<g id="node4" class="node"><title>n4</title>
<g id="a_node4"><a xlink:href="https://gazelle.dicom.org.tw/gazelle/actor.seam?keyword=DOC_CONSUMER" xlink:title="DocumentBundle Consumer">
<polygon fill="#9fbdeb" stroke="black" points="368,-211.402 228,-211.402 228,-170.198 368,-170.198 368,-211.402"></polygon>
<text text-anchor="middle" x="298" y="-195" font-family="Times,serif" font-size="14.00">DocumentBundle</text>
<text text-anchor="middle" x="298" y="-178.2" font-family="Times,serif" font-size="14.00">Consumer</text>
</a>
</g>
</g>
<!-- n5 -->
<g id="node5" class="node"><title>n5</title>
<g id="a_node5"><a xlink:href="https://gazelle.dicom.org.tw/gazelle/actor.seam?keyword=DOC_REPOSITORY" xlink:title="DocumentBundle Repository">
<polygon fill="#9fbdeb" stroke="black" points="447,-66.6019 307,-66.6019 307,-25.3981 447,-25.3981 447,-66.6019"></polygon>
<text text-anchor="middle" x="377" y="-50.2" font-family="Times,serif" font-size="14.00">DocumentBundle</text>
<text text-anchor="middle" x="377" y="-33.4" font-family="Times,serif" font-size="14.00">Repository</text>
</a>
</g>
</g>
<!-- n4&#45;&gt;n5 -->
<g id="edge3" class="edge"><title>n4-&gt;n5</title>
<path fill="none" stroke="black" d="M308.985,-169.944C322.545,-145.433 345.706,-103.567 361.18,-75.5955"></path>
<polygon fill="black" stroke="black" points="364.33,-77.1316 366.109,-66.6871 358.205,-73.743 364.33,-77.1316"></polygon>
<text text-anchor="middle" x="368.766" y="-114.2" font-family="Times,serif" font-size="14.00">MITW-24</text>
</g>
<!-- n6 -->
<g id="node6" class="node"><title>n6</title>
<g id="a_node6"><a xlink:href="https://gazelle.dicom.org.tw/gazelle/actor.seam?keyword=DOC_CREATOR" xlink:title="DocumentBundle Creator">
<polygon fill="#9fbdeb" stroke="black" points="526,-211.402 386,-211.402 386,-170.198 526,-170.198 526,-211.402"></polygon>
<text text-anchor="middle" x="456" y="-195" font-family="Times,serif" font-size="14.00">DocumentBundle</text>
<text text-anchor="middle" x="456" y="-178.2" font-family="Times,serif" font-size="14.00">Creator</text>
</a>
</g>
</g>
<!-- n6&#45;&gt;n5 -->
<g id="edge4" class="edge"><title>n6-&gt;n5</title>
<path fill="none" stroke="black" d="M445.015,-169.944C431.455,-145.433 408.294,-103.567 392.82,-75.5955"></path>
<polygon fill="black" stroke="black" points="395.795,-73.743 387.891,-66.6871 389.67,-77.1316 395.795,-73.743"></polygon>
<text text-anchor="middle" x="447.766" y="-114.2" font-family="Times,serif" font-size="14.00">MITW-23</text>
</g>
<!-- n7 -->
<g id="node7" class="node"><title>n7</title>
<g id="a_node7"><a xlink:href="https://gazelle.dicom.org.tw/gazelle/actor.seam?keyword=MEDAM_CONSUMER" xlink:title="MedicationAdministration Consumer">
<polygon fill="#9fbdeb" stroke="black" points="749.5,-211.402 544.5,-211.402 544.5,-170.198 749.5,-170.198 749.5,-211.402"></polygon>
<text text-anchor="middle" x="647" y="-195" font-family="Times,serif" font-size="14.00">MedicationAdministration</text>
<text text-anchor="middle" x="647" y="-178.2" font-family="Times,serif" font-size="14.00">Consumer</text>
</a>
</g>
</g>
<!-- n8 -->
<g id="node8" class="node"><title>n8</title>
<g id="a_node8"><a xlink:href="https://gazelle.dicom.org.tw/gazelle/actor.seam?keyword=MEDAM_REPOSITORY" xlink:title="MedicationAdministration Repository">
<polygon fill="#9fbdeb" stroke="black" points="861.5,-66.6019 656.5,-66.6019 656.5,-25.3981 861.5,-25.3981 861.5,-66.6019"></polygon>
<text text-anchor="middle" x="759" y="-50.2" font-family="Times,serif" font-size="14.00">MedicationAdministration</text>
<text text-anchor="middle" x="759" y="-33.4" font-family="Times,serif" font-size="14.00">Repository</text>
</a>
</g>
</g>
<!-- n7&#45;&gt;n8 -->
<g id="edge5" class="edge"><title>n7-&gt;n8</title>
<path fill="none" stroke="black" d="M662.573,-169.944C681.965,-145.22 715.205,-102.838 737.142,-74.869"></path>
<polygon fill="black" stroke="black" points="740.142,-76.7156 743.559,-66.6871 734.634,-72.3956 740.142,-76.7156"></polygon>
<text text-anchor="middle" x="732.266" y="-114.2" font-family="Times,serif" font-size="14.00">MITW-8</text>
</g>
<!-- n9 -->
<g id="node9" class="node"><title>n9</title>
<g id="a_node9"><a xlink:href="https://gazelle.dicom.org.tw/gazelle/actor.seam?keyword=MEDAM_CREATOR" xlink:title="MedicationAdministration Creator">
<polygon fill="#9fbdeb" stroke="black" points="972.5,-211.402 767.5,-211.402 767.5,-170.198 972.5,-170.198 972.5,-211.402"></polygon>
<text text-anchor="middle" x="870" y="-195" font-family="Times,serif" font-size="14.00">MedicationAdministration</text>
<text text-anchor="middle" x="870" y="-178.2" font-family="Times,serif" font-size="14.00">Creator</text>
</a>
</g>
</g>
<!-- n9&#45;&gt;n8 -->
<g id="edge6" class="edge"><title>n9-&gt;n8</title>
<path fill="none" stroke="black" d="M854.566,-169.944C835.347,-145.22 802.404,-102.838 780.663,-74.869"></path>
<polygon fill="black" stroke="black" points="783.204,-72.4344 774.303,-66.6871 777.677,-76.7304 783.204,-72.4344"></polygon>
<text text-anchor="middle" x="843.266" y="-114.2" font-family="Times,serif" font-size="14.00">MITW-7</text>
</g>
<!-- n10 -->
<g id="node10" class="node"><title>n10</title>
<g id="a_node10"><a xlink:href="https://gazelle.dicom.org.tw/gazelle/actor.seam?keyword=MEDRQ_CONSUMER" xlink:title="MedicationRequest Consumer">
<polygon fill="#9fbdeb" stroke="black" points="1147,-211.402 991,-211.402 991,-170.198 1147,-170.198 1147,-211.402"></polygon>
<text text-anchor="middle" x="1069" y="-195" font-family="Times,serif" font-size="14.00">MedicationRequest</text>
<text text-anchor="middle" x="1069" y="-178.2" font-family="Times,serif" font-size="14.00">Consumer</text>
</a>
</g>
</g>
<!-- n11 -->
<g id="node11" class="node"><title>n11</title>
<g id="a_node11"><a xlink:href="https://gazelle.dicom.org.tw/gazelle/actor.seam?keyword=MEDRQ_REPOSITORY" xlink:title="MedicationRequest Repository">
<polygon fill="#9fbdeb" stroke="black" points="1234,-66.6019 1078,-66.6019 1078,-25.3981 1234,-25.3981 1234,-66.6019"></polygon>
<text text-anchor="middle" x="1156" y="-50.2" font-family="Times,serif" font-size="14.00">MedicationRequest</text>
<text text-anchor="middle" x="1156" y="-33.4" font-family="Times,serif" font-size="14.00">Repository</text>
</a>
</g>
</g>
<!-- n10&#45;&gt;n11 -->
<g id="edge7" class="edge"><title>n10-&gt;n11</title>
<path fill="none" stroke="black" d="M1081.1,-169.944C1096.1,-145.326 1121.76,-103.203 1138.8,-75.2314"></path>
<polygon fill="black" stroke="black" points="1141.79,-77.048 1144.01,-66.6871 1135.81,-73.406 1141.79,-77.048"></polygon>
<text text-anchor="middle" x="1141.27" y="-114.2" font-family="Times,serif" font-size="14.00">MITW-6</text>
</g>
<!-- n12 -->
<g id="node12" class="node"><title>n12</title>
<g id="a_node12"><a xlink:href="https://gazelle.dicom.org.tw/gazelle/actor.seam?keyword=MEDRQ_CREATOR" xlink:title="MedicationRequest Creator">
<polygon fill="#9fbdeb" stroke="black" points="1321,-211.402 1165,-211.402 1165,-170.198 1321,-170.198 1321,-211.402"></polygon>
<text text-anchor="middle" x="1243" y="-195" font-family="Times,serif" font-size="14.00">MedicationRequest</text>
<text text-anchor="middle" x="1243" y="-178.2" font-family="Times,serif" font-size="14.00">Creator</text>
</a>
</g>
</g>
<!-- n12&#45;&gt;n11 -->
<g id="edge8" class="edge"><title>n12-&gt;n11</title>
<path fill="none" stroke="black" d="M1230.9,-169.944C1215.9,-145.326 1190.24,-103.203 1173.2,-75.2314"></path>
<polygon fill="black" stroke="black" points="1176.19,-73.406 1167.99,-66.6871 1170.21,-77.048 1176.19,-73.406"></polygon>
<text text-anchor="middle" x="1228.27" y="-114.2" font-family="Times,serif" font-size="14.00">MITW-5</text>
</g>
<!-- n13 -->
<g id="node13" class="node"><title>n13</title>
<g id="a_node13"><a xlink:href="https://gazelle.dicom.org.tw/gazelle/actor.seam?keyword=SERVICE_REQ_CONSUMER" xlink:title="Service Request Consumer">
<polygon fill="#9fbdeb" stroke="black" points="1429,-220.201 1339,-220.201 1339,-161.399 1429,-161.399 1429,-220.201"></polygon>
<text text-anchor="middle" x="1384" y="-203.4" font-family="Times,serif" font-size="14.00">Service</text>
<text text-anchor="middle" x="1384" y="-186.6" font-family="Times,serif" font-size="14.00">Request</text>
<text text-anchor="middle" x="1384" y="-169.8" font-family="Times,serif" font-size="14.00">Consumer</text>
</a>
</g>
</g>
<!-- n14 -->
<g id="node14" class="node"><title>n14</title>
<g id="a_node14"><a xlink:href="https://gazelle.dicom.org.tw/gazelle/actor.seam?keyword= SERVICE_REQ_REPOSITORY" xlink:title="Service Request Repository">
<polygon fill="#9fbdeb" stroke="black" points="1432,-75.4014 1338,-75.4014 1338,-16.5986 1432,-16.5986 1432,-75.4014"></polygon>
<text text-anchor="middle" x="1385" y="-58.6" font-family="Times,serif" font-size="14.00">Service</text>
<text text-anchor="middle" x="1385" y="-41.8" font-family="Times,serif" font-size="14.00">Request</text>
<text text-anchor="middle" x="1385" y="-25" font-family="Times,serif" font-size="14.00">Repository</text>
</a>
</g>
</g>
<!-- n13&#45;&gt;n14 -->
<g id="edge9" class="edge"><title>n13-&gt;n14</title>
<path fill="none" stroke="black" d="M1384.2,-161.587C1384.35,-139.921 1384.56,-109.757 1384.73,-85.8152"></path>
<polygon fill="black" stroke="black" points="1388.23,-85.6672 1384.8,-75.6429 1381.23,-85.6181 1388.23,-85.6672"></polygon>
<text text-anchor="middle" x="1413.77" y="-114.2" font-family="Times,serif" font-size="14.00">MITW-72</text>
</g>
<!-- n15 -->
<g id="node15" class="node"><title>n15</title>
<g id="a_node15"><a xlink:href="https://gazelle.dicom.org.tw/gazelle/actor.seam?keyword=SERVICE_REQ_CREATOR " xlink:title="Service Request Creator">
<polygon fill="#9fbdeb" stroke="black" points="1522.5,-220.201 1447.5,-220.201 1447.5,-161.399 1522.5,-161.399 1522.5,-220.201"></polygon>
<text text-anchor="middle" x="1485" y="-203.4" font-family="Times,serif" font-size="14.00">Service</text>
<text text-anchor="middle" x="1485" y="-186.6" font-family="Times,serif" font-size="14.00">Request</text>
<text text-anchor="middle" x="1485" y="-169.8" font-family="Times,serif" font-size="14.00">Creator</text>
</a>
</g>
</g>
<!-- n15&#45;&gt;n14 -->
<g id="edge10" class="edge"><title>n15-&gt;n14</title>
<path fill="none" stroke="black" d="M1474.29,-161.592C1467.62,-145.727 1458.18,-125.963 1447,-110 1440.33,-100.472 1432.17,-91.0637 1424,-82.5389"></path>
<polygon fill="black" stroke="black" points="1426.36,-79.9504 1416.84,-75.2941 1421.38,-84.8689 1426.36,-79.9504"></polygon>
<text text-anchor="middle" x="1486.77" y="-114.2" font-family="Times,serif" font-size="14.00">MITW-71</text>
</g>
</g>
</g></svg>