<svg width="320pt" height="194pt" xmlns="http://www.w3.org/2000/svg" xmlns:xlink="http://www.w3.org/1999/xlink" xmlns:ev="http://www.w3.org/2001/xml-events" style="overflow: hidden; "><g id="viewport-20230830120455715" class="svg-pan-zoom_viewport" transform="matrix(1.334375023841858,0,0,1.334375023841858,-0.000003814697265625,0.3324976861476898)">
<g id="graph0" class="graph" transform="scale(1 1) rotate(0) translate(4 189.6)">
<title>n0</title>
<polygon fill="white" stroke="none" points="-4,4 -4,-189.6 316,-189.6 316,4 -4,4"></polygon>
<polygon fill="#ffffff" stroke="none" points="0,-0 0,-173 312,-173 312,-0 0,-0"></polygon>
<!-- n1 -->
<g id="node1" class="node"><title>n1</title>
<g id="a_node1"><a xlink:href="https://gazelle.dicom.org.tw/gazelle/actor.seam?keyword=WSI_ANN_CONSUMER" xlink:title=" WSI ANN Consumer ">
<polygon fill="#9fbdeb" stroke="black" points="90,-185.801 0,-185.801 0,-110.999 90,-110.999 90,-185.801"></polygon>
<text text-anchor="middle" x="45" y="-153" font-family="Times,serif" font-size="14.00">WSI</text>
<text text-anchor="middle" x="45" y="-136.2" font-family="Times,serif" font-size="14.00">ANN</text>
<text text-anchor="middle" x="45" y="-119.4" font-family="Times,serif" font-size="14.00">Consumer</text>
</a>
</g>
</g>
<!-- n2 -->
<g id="node2" class="node"><title>n2</title>
<g id="a_node2"><a xlink:href="https://gazelle.dicom.org.tw/gazelle/actor.seam?keyword=WSI_REPOSITORY" xlink:title="WSI Repository">
<polygon fill="#9fbdeb" stroke="black" points="203,-41.4019 109,-41.4019 109,-0.198095 203,-0.198095 203,-41.4019"></polygon>
<text text-anchor="middle" x="156" y="-25" font-family="Times,serif" font-size="14.00">WSI</text>
<text text-anchor="middle" x="156" y="-8.2" font-family="Times,serif" font-size="14.00">Repository</text>
</a>
</g>
</g>
<!-- n1&#45;&gt;n2 -->
<g id="edge1" class="edge"><title>n1-&gt;n2</title>
<path fill="none" stroke="black" d="M61.5055,-111.031C70.3551,-94.1166 82.4087,-74.497 96.7896,-59.6 100.968,-55.2718 105.734,-51.2081 110.707,-47.4677"></path>
<polygon fill="black" stroke="black" points="113.04,-50.1059 119.204,-41.4884 109.011,-44.3813 113.04,-50.1059"></polygon>
<text text-anchor="middle" x="124.605" y="-80.6" font-family="Times,serif" font-size="14.00">RAD-107</text>
<text text-anchor="middle" x="124.605" y="-63.8" font-family="Times,serif" font-size="14.00">RAD-129</text>
</g>
<!-- n3 -->
<g id="node3" class="node"><title>n3</title>
<g id="a_node3"><a xlink:href="https://gazelle.dicom.org.tw/gazelle/actor.seam?keyword=WSI_ANN_CREATOR" xlink:title="WSI Annotation Creator ">
<polygon fill="#9fbdeb" stroke="black" points="203.5,-177.801 108.5,-177.801 108.5,-118.999 203.5,-118.999 203.5,-177.801"></polygon>
<text text-anchor="middle" x="156" y="-161" font-family="Times,serif" font-size="14.00">WSI</text>
<text text-anchor="middle" x="156" y="-144.2" font-family="Times,serif" font-size="14.00">Annotation</text>
<text text-anchor="middle" x="156" y="-127.4" font-family="Times,serif" font-size="14.00">Creator</text>
</a>
</g>
</g>
<!-- n3&#45;&gt;n2 -->
<g id="edge2" class="edge"><title>n3-&gt;n2</title>
<path fill="none" stroke="black" d="M156,-118.899C156,-98.8989 156,-72.203 156,-51.865"></path>
<polygon fill="black" stroke="black" points="159.5,-51.5912 156,-41.5913 152.5,-51.5913 159.5,-51.5912"></polygon>
<text text-anchor="middle" x="183.605" y="-72.2" font-family="Times,serif" font-size="14.00">RAD-108</text>
</g>
<!-- n4 -->
<g id="node4" class="node"><title>n4</title>
<g id="a_node4"><a xlink:href="https://gazelle.dicom.org.tw/gazelle/actor.seam?keyword=WSI_CONSUMER" xlink:title="WSI Consumer">
<polygon fill="#9fbdeb" stroke="black" points="312,-169.002 222,-169.002 222,-127.798 312,-127.798 312,-169.002"></polygon>
<text text-anchor="middle" x="267" y="-152.6" font-family="Times,serif" font-size="14.00">WSI</text>
<text text-anchor="middle" x="267" y="-135.8" font-family="Times,serif" font-size="14.00">Consumer</text>
</a>
</g>
</g>
<!-- n4&#45;&gt;n2 -->
<g id="edge3" class="edge"><title>n4-&gt;n2</title>
<path fill="none" stroke="black" d="M258.521,-127.504C249.693,-108.462 234.442,-79.7368 215,-59.6 210.832,-55.283 206.08,-51.2263 201.123,-47.4897"></path>
<polygon fill="black" stroke="black" points="202.844,-44.4203 192.655,-41.5142 198.807,-50.1396 202.844,-44.4203"></polygon>
<text text-anchor="middle" x="268.605" y="-80.6" font-family="Times,serif" font-size="14.00">RAD-107</text>
<text text-anchor="middle" x="268.605" y="-63.8" font-family="Times,serif" font-size="14.00">RAD-129</text>
</g>
</g>
</g></svg>