<svg width="386pt" height="178pt" xmlns="http://www.w3.org/2000/svg" xmlns:xlink="http://www.w3.org/1999/xlink" xmlns:ev="http://www.w3.org/2001/xml-events" style="overflow: hidden; "><g id="viewport-20230830120534467" class="svg-pan-zoom_viewport" transform="matrix(1.334196925163269,0,0,1.334196925163269,-0.000006556510925292969,0.023313045501708984)">
<g id="graph0" class="graph" transform="scale(1 1) rotate(0) translate(4 173.6)">
<title>n0</title>
<polygon fill="white" stroke="none" points="-4,4 -4,-173.6 382,-173.6 382,4 -4,4"></polygon>
<polygon fill="#ffffff" stroke="none" points="0,-0 0,-157 378,-157 378,-0 0,-0"></polygon>
<!-- n1 -->
<g id="node1" class="node"><title>n1</title>
<g id="a_node1"><a xlink:href="https://gazelle.dicom.org.tw/gazelle/actor.seam?keyword=TCR_LF_Consumer" xlink:title="TCR Long Form Consumer">
<polygon fill="#9fbdeb" stroke="black" points="90,-169.7 0,-169.7 0,-94.2997 90,-94.2997 90,-169.7"></polygon>
<text text-anchor="middle" x="45" y="-153" font-family="Times,serif" font-size="14.00">TCR</text>
<text text-anchor="middle" x="45" y="-136.2" font-family="Times,serif" font-size="14.00">Long</text>
<text text-anchor="middle" x="45" y="-119.4" font-family="Times,serif" font-size="14.00">Form</text>
<text text-anchor="middle" x="45" y="-102.6" font-family="Times,serif" font-size="14.00">Consumer</text>
</a>
</g>
</g>
<!-- n2 -->
<g id="node2" class="node"><title>n2</title>
<g id="a_node2"><a xlink:href="https://gazelle.dicom.org.tw/gazelle/actor.seam?keyword=TCR_Repository" xlink:title="TCR Repository">
<polygon fill="#9fbdeb" stroke="black" points="240,-41.4019 146,-41.4019 146,-0.198095 240,-0.198095 240,-41.4019"></polygon>
<text text-anchor="middle" x="193" y="-25" font-family="Times,serif" font-size="14.00">TCR</text>
<text text-anchor="middle" x="193" y="-8.2" font-family="Times,serif" font-size="14.00">Repository</text>
</a>
</g>
</g>
<!-- n1&#45;&gt;n2 -->
<g id="edge1" class="edge"><title>n1-&gt;n2</title>
<path fill="none" stroke="black" d="M65.0493,-94.1758C73.1811,-81.8759 83.4996,-68.9383 95.467,-59.6 107.449,-50.2506 122.019,-42.9744 136.206,-37.415"></path>
<polygon fill="black" stroke="black" points="137.755,-40.5748 145.93,-33.8361 135.337,-34.0056 137.755,-40.5748"></polygon>
<text text-anchor="middle" x="124.767" y="-63.8" font-family="Times,serif" font-size="14.00">MITW-46</text>
</g>
<!-- n3 -->
<g id="node3" class="node"><title>n3</title>
<g id="a_node3"><a xlink:href="https://gazelle.dicom.org.tw/gazelle/actor.seam?keyword=TCR_LF_Creator" xlink:title="TCR Long Form Creator">
<polygon fill="#9fbdeb" stroke="black" points="180,-169.7 108,-169.7 108,-94.2997 180,-94.2997 180,-169.7"></polygon>
<text text-anchor="middle" x="144" y="-153" font-family="Times,serif" font-size="14.00">TCR</text>
<text text-anchor="middle" x="144" y="-136.2" font-family="Times,serif" font-size="14.00">Long</text>
<text text-anchor="middle" x="144" y="-119.4" font-family="Times,serif" font-size="14.00">Form</text>
<text text-anchor="middle" x="144" y="-102.6" font-family="Times,serif" font-size="14.00">Creator</text>
</a>
</g>
</g>
<!-- n3&#45;&gt;n2 -->
<g id="edge2" class="edge"><title>n3-&gt;n2</title>
<path fill="none" stroke="black" d="M151.018,-94.3809C153.992,-82.8911 158.054,-70.3966 163.467,-59.6 165.133,-56.2777 167.115,-52.9651 169.253,-49.7598"></path>
<polygon fill="black" stroke="black" points="172.136,-51.7452 175.165,-41.5925 166.466,-47.6404 172.136,-51.7452"></polygon>
<text text-anchor="middle" x="192.767" y="-63.8" font-family="Times,serif" font-size="14.00">MITW-45</text>
</g>
<!-- n4 -->
<g id="node4" class="node"><title>n4</title>
<g id="a_node4"><a xlink:href="https://gazelle.dicom.org.tw/gazelle/actor.seam?keyword=TCR_SF_Consumer" xlink:title="TCR Short Form Consumer">
<polygon fill="#9fbdeb" stroke="black" points="288,-169.7 198,-169.7 198,-94.2997 288,-94.2997 288,-169.7"></polygon>
<text text-anchor="middle" x="243" y="-153" font-family="Times,serif" font-size="14.00">TCR</text>
<text text-anchor="middle" x="243" y="-136.2" font-family="Times,serif" font-size="14.00">Short</text>
<text text-anchor="middle" x="243" y="-119.4" font-family="Times,serif" font-size="14.00">Form</text>
<text text-anchor="middle" x="243" y="-102.6" font-family="Times,serif" font-size="14.00">Consumer</text>
</a>
</g>
</g>
<!-- n4&#45;&gt;n2 -->
<g id="edge3" class="edge"><title>n4-&gt;n2</title>
<path fill="none" stroke="black" d="M234.222,-94.1147C230.836,-82.731 226.444,-70.3647 221,-59.6 219.404,-56.4435 217.546,-53.273 215.561,-50.1837"></path>
<polygon fill="black" stroke="black" points="218.309,-48.004 209.742,-41.771 212.552,-51.9863 218.309,-48.004"></polygon>
<text text-anchor="middle" x="256.767" y="-63.8" font-family="Times,serif" font-size="14.00">MITW-44</text>
</g>
<!-- n5 -->
<g id="node5" class="node"><title>n5</title>
<g id="a_node5"><a xlink:href="https://gazelle.dicom.org.tw/gazelle/actor.seam?keyword=TCR_SF_Creator" xlink:title="TCR Short Form Creator">
<polygon fill="#9fbdeb" stroke="black" points="378,-169.7 306,-169.7 306,-94.2997 378,-94.2997 378,-169.7"></polygon>
<text text-anchor="middle" x="342" y="-153" font-family="Times,serif" font-size="14.00">TCR</text>
<text text-anchor="middle" x="342" y="-136.2" font-family="Times,serif" font-size="14.00">Short</text>
<text text-anchor="middle" x="342" y="-119.4" font-family="Times,serif" font-size="14.00">Form</text>
<text text-anchor="middle" x="342" y="-102.6" font-family="Times,serif" font-size="14.00">Creator</text>
</a>
</g>
</g>
<!-- n5&#45;&gt;n2 -->
<g id="edge4" class="edge"><title>n5-&gt;n2</title>
<path fill="none" stroke="black" d="M321.137,-94.199C312.739,-81.9012 302.148,-68.9591 290,-59.6 278.135,-50.4583 263.786,-43.274 249.805,-37.7378"></path>
<polygon fill="black" stroke="black" points="250.813,-34.3782 240.22,-34.1646 248.367,-40.9372 250.813,-34.3782"></polygon>
<text text-anchor="middle" x="336.767" y="-63.8" font-family="Times,serif" font-size="14.00">MITW-43</text>
</g>
</g>
</g></svg>