<svg width="251pt" height="245pt" xmlns="http://www.w3.org/2000/svg" xmlns:xlink="http://www.w3.org/1999/xlink" xmlns:ev="http://www.w3.org/2001/xml-events" style="overflow: hidden; "><g id="viewport-20230830120600994" class="svg-pan-zoom_viewport" transform="matrix(1.33450186252594,0,0,1.33450186252594,-0.0000012749433153658174,0.1569720208644867)">
<g id="graph0" class="graph" transform="scale(1 1) rotate(0) translate(4 240.8)">
<title>n0</title>
<polygon fill="white" stroke="none" points="-4,4 -4,-240.8 247.033,-240.8 247.033,4 -4,4"></polygon>
<polygon fill="#ffffff" stroke="none" points="0,-0 0,-217 251.5,-217 251.5,-0 0,-0"></polygon>
<!-- n1 -->
<g id="node1" class="node"><title>n1</title>
<g id="a_node1"><a xlink:href="https://gazelle.dicom.org.tw/gazelle/actor.seam?keyword=TELMED_LOCAL" xlink:title="Telemedicine local Client">
<polygon fill="#9fbdeb" stroke="black" points="111,-237.001 0,-237.001 0,-178.199 111,-178.199 111,-237.001"></polygon>
<text text-anchor="middle" x="55.5" y="-220.2" font-family="Times,serif" font-size="14.00">Telemedicine</text>
<text text-anchor="middle" x="55.5" y="-203.4" font-family="Times,serif" font-size="14.00">local</text>
<text text-anchor="middle" x="55.5" y="-186.6" font-family="Times,serif" font-size="14.00">Client</text>
</a>
</g>
</g>
<!-- n2 -->
<g id="node2" class="node"><title>n2</title>
<g id="a_node2"><a xlink:href="https://gazelle.dicom.org.tw/gazelle/actor.seam?keyword=TELMED_REPOSITORY" xlink:title="Telmedicine repository">
<polygon fill="#9fbdeb" stroke="black" points="171,-41.4019 68,-41.4019 68,-0.198095 171,-0.198095 171,-41.4019"></polygon>
<text text-anchor="middle" x="119.5" y="-25" font-family="Times,serif" font-size="14.00">Telmedicine</text>
<text text-anchor="middle" x="119.5" y="-8.2" font-family="Times,serif" font-size="14.00">repository</text>
</a>
</g>
</g>
<!-- n1&#45;&gt;n2 -->
<g id="edge1" class="edge"><title>n1-&gt;n2</title>
<path fill="none" stroke="black" d="M64.6296,-178.296C74.2989,-148.605 90.1803,-100.639 104.967,-59.6 105.95,-56.8715 106.994,-54.0409 108.053,-51.2119"></path>
<polygon fill="black" stroke="black" points="111.368,-52.3417 111.648,-41.7505 104.824,-49.8552 111.368,-52.3417"></polygon>
<text text-anchor="middle" x="134.267" y="-147.8" font-family="Times,serif" font-size="14.00">MITW-49</text>
<text text-anchor="middle" x="134.267" y="-131" font-family="Times,serif" font-size="14.00">MITW-51</text>
<text text-anchor="middle" x="134.267" y="-114.2" font-family="Times,serif" font-size="14.00">MITW-53</text>
<text text-anchor="middle" x="134.267" y="-97.4" font-family="Times,serif" font-size="14.00">MITW-54</text>
<text text-anchor="middle" x="134.267" y="-80.6" font-family="Times,serif" font-size="14.00">MITW-1</text>
<text text-anchor="middle" x="134.267" y="-63.8" font-family="Times,serif" font-size="14.00">MITW-2</text>
</g>
<!-- n3 -->
<g id="node3" class="node"><title>n3</title>
<g id="a_node3"><a xlink:href="https://gazelle.dicom.org.tw/gazelle/actor.seam?keyword=TELMED_REMOTE" xlink:title="Telemedicine remote client">
<polygon fill="#9fbdeb" stroke="black" points="240,-237.001 129,-237.001 129,-178.199 240,-178.199 240,-237.001"></polygon>
<text text-anchor="middle" x="184.5" y="-220.2" font-family="Times,serif" font-size="14.00">Telemedicine</text>
<text text-anchor="middle" x="184.5" y="-203.4" font-family="Times,serif" font-size="14.00">remote</text>
<text text-anchor="middle" x="184.5" y="-186.6" font-family="Times,serif" font-size="14.00">client</text>
</a>
</g>
</g>
<!-- n3&#45;&gt;n2 -->
<g id="edge2" class="edge"><title>n3-&gt;n2</title>
<path fill="none" stroke="black" d="M185.862,-178.253C186.128,-147.245 182.88,-96.9841 162.5,-59.6 160.466,-55.8692 157.912,-52.3303 155.069,-49.0232"></path>
<polygon fill="black" stroke="black" points="157.491,-46.4924 148.018,-41.7464 152.463,-51.3636 157.491,-46.4924"></polygon>
<text text-anchor="middle" x="214.267" y="-139.4" font-family="Times,serif" font-size="14.00">MITW-50</text>
<text text-anchor="middle" x="214.267" y="-122.6" font-family="Times,serif" font-size="14.00">MITW-52</text>
<text text-anchor="middle" x="214.267" y="-105.8" font-family="Times,serif" font-size="14.00">MITW-53</text>
<text text-anchor="middle" x="214.267" y="-89" font-family="Times,serif" font-size="14.00">MITW-54</text>
<text text-anchor="middle" x="214.267" y="-72.2" font-family="Times,serif" font-size="14.00">MITW-2</text>
</g>
</g>
</g></svg>