<svg width="210pt" height="210pt" xmlns="http://www.w3.org/2000/svg" xmlns:xlink="http://www.w3.org/1999/xlink" xmlns:ev="http://www.w3.org/2001/xml-events" style="overflow: hidden; "><g id="viewport-20230830120644000" class="svg-pan-zoom_viewport" transform="matrix(1.3358778953552246,0,0,1.3358778953552246,0.06679046154022217,-0.00000343322744811303)">
<g id="graph0" class="graph" transform="scale(1 1) rotate(0) translate(4 205.6)">
<title>n0</title>
<polygon fill="white" stroke="none" points="-4,4 -4,-205.6 205.5,-205.6 205.5,4 -4,4"></polygon>
<polygon fill="#ffffff" stroke="none" points="0,-0 0,-189 205.5,-189 205.5,-0 0,-0"></polygon>
<!-- n1 -->
<g id="node1" class="node"><title>n1</title>
<g id="a_node1"><a xlink:href="https://gazelle.dicom.org.tw/gazelle/actor.seam?keyword= IMG_DOC_CONSUMER" xlink:title=" Imaging Document Consumer">
<polygon fill="#9fbdeb" stroke="black" points="146.5,-201.801 56.5,-201.801 56.5,-126.999 146.5,-126.999 146.5,-201.801"></polygon>
<text text-anchor="middle" x="101.5" y="-169" font-family="Times,serif" font-size="14.00">Imaging</text>
<text text-anchor="middle" x="101.5" y="-152.2" font-family="Times,serif" font-size="14.00">Document</text>
<text text-anchor="middle" x="101.5" y="-135.4" font-family="Times,serif" font-size="14.00">Consumer</text>
</a>
</g>
</g>
<!-- n2 -->
<g id="node2" class="node"><title>n2</title>
<g id="a_node2"><a xlink:href="https://gazelle.dicom.org.tw/gazelle/actor.seam?keyword=IMG_DOC_RESPONDER" xlink:title=" Imaging Document Responder">
<polygon fill="#9fbdeb" stroke="black" points="93,-74.6011 0,-74.6011 0,0.201081 93,0.201081 93,-74.6011"></polygon>
<text text-anchor="middle" x="46.5" y="-41.8" font-family="Times,serif" font-size="14.00">Imaging</text>
<text text-anchor="middle" x="46.5" y="-25" font-family="Times,serif" font-size="14.00">Document</text>
<text text-anchor="middle" x="46.5" y="-8.2" font-family="Times,serif" font-size="14.00">Responder</text>
</a>
</g>
</g>
<!-- n1&#45;&gt;n2 -->
<g id="edge1" class="edge"><title>n1-&gt;n2</title>
<path fill="none" stroke="black" d="M85.5917,-127.187C79.7145,-113.808 72.9727,-98.4615 66.7614,-84.3222"></path>
<polygon fill="black" stroke="black" points="69.7896,-82.5132 62.5631,-74.7654 63.3807,-85.3286 69.7896,-82.5132"></polygon>
<text text-anchor="middle" x="105.105" y="-96.6" font-family="Times,serif" font-size="14.00">RAD-129</text>
</g>
<!-- n3 -->
<g id="node3" class="node"><title>n3</title>
<g id="a_node3"><a xlink:href="https://gazelle.dicom.org.tw/gazelle/actor.seam?keyword=IMG_DOC_SOURCE" xlink:title="Imaging Document Source">
<polygon fill="#9fbdeb" stroke="black" points="201.5,-66.6014 111.5,-66.6014 111.5,-7.79862 201.5,-7.79862 201.5,-66.6014"></polygon>
<text text-anchor="middle" x="156.5" y="-49.8" font-family="Times,serif" font-size="14.00">Imaging</text>
<text text-anchor="middle" x="156.5" y="-33" font-family="Times,serif" font-size="14.00">Document</text>
<text text-anchor="middle" x="156.5" y="-16.2" font-family="Times,serif" font-size="14.00">Source</text>
</a>
</g>
</g>
<!-- n1&#45;&gt;n3 -->
<g id="edge2" class="edge"><title>n1-&gt;n3</title>
<path fill="none" stroke="black" d="M125.302,-127.036C128.634,-121.198 131.828,-115.125 134.5,-109.2 139.212,-98.7525 143.302,-87.0087 146.635,-76.1255"></path>
<polygon fill="black" stroke="black" points="150.022,-77.0154 149.479,-66.4344 143.305,-75.0441 150.022,-77.0154"></polygon>
<text text-anchor="middle" x="169.105" y="-96.6" font-family="Times,serif" font-size="14.00">RAD-107</text>
</g>
</g>
</g></svg>